<?xml version="1.0" encoding="UTF-8"?>
<svg width="142px" height="142px" viewBox="0 0 142 142" version="1.1" xmlns="http://www.w3.org/2000/svg" xmlns:xlink="http://www.w3.org/1999/xlink">
    <!-- Generator: Sketch 51 (57462) - http://www.bohemiancoding.com/sketch -->
    <title>flashy</title>
    <desc>Created with Sketch.</desc>
    <defs></defs>
    <g id="Page-1" stroke="none" stroke-width="1" fill="none" fill-rule="evenodd">
        <g id="flashy" transform="translate(5.000000, 5.000000)">
            <g id="Page-1-Copy-12">
                <path d="M105.437521,131.221865 C105.882696,131.682998 106.637784,131.620944 106.998234,131.09144 C110.668883,125.700153 128.667994,97.5405366 131.52447,73.1242397 C133.871486,53.0636297 127.144069,35.3952662 119.829155,26.1625624 C113.945637,18.7364915 100.035967,-1.22602075 61.6877577,0.0592821952 C22.2804931,1.38062861 -7.38717814,39.5673915 1.6233393,78.6530117 C8.49530808,108.461338 22.0307789,126.609786 25.3907715,130.775595 C25.7857805,131.265712 26.5252613,131.278717 26.9388503,130.804206 L40.2758876,115.501335 C40.7114009,115.001557 41.5021623,115.049491 41.8745039,115.598318 L52.6976782,131.55666 C53.0789381,132.118493 53.8949682,132.152307 54.3211915,131.623917 L66.4954975,116.528389 C66.9161469,116.006687 67.7187994,116.031212 68.1063765,116.577809 L78.701761,131.508355 C79.1082896,132.080591 79.9599931,132.075018 80.3583466,131.497207 L91.5951099,115.20184 C91.9577899,114.676051 92.7106482,114.613997 93.1543367,115.073273 L105.437521,131.221865 Z" id="Fill-1" fill="#FEFEFE" fill-rule="nonzero"></path>
                <path d="M105.437521,131.221865 C105.882696,131.682998 106.637784,131.620944 106.998234,131.09144 C110.668883,125.700153 128.667994,97.5405366 131.52447,73.1242397 C133.871486,53.0636297 127.144069,35.3952662 119.829155,26.1625624 C113.945637,18.7364915 100.035967,-1.22602075 61.6877577,0.0592821952 C22.2804931,1.38062861 -7.38717814,39.5673915 1.6233393,78.6530117 C8.49530808,108.461338 22.0307789,126.609786 25.3907715,130.775595 C25.7857805,131.265712 26.5252613,131.278717 26.9388503,130.804206 L40.2758876,115.501335 C40.7114009,115.001557 41.5021623,115.049491 41.8745039,115.598318 L52.6976782,131.55666 C53.0789381,132.118493 53.8949682,132.152307 54.3211915,131.623917 L66.4954975,116.528389 C66.9161469,116.006687 67.7187994,116.031212 68.1063765,116.577809 L78.701761,131.508355 C79.1082896,132.080591 79.9599931,132.075018 80.3583466,131.497207 L91.5951099,115.20184 C91.9577899,114.676051 92.7106482,114.613997 93.1543367,115.073273 L105.437521,131.221865 Z" id="Stroke-3" stroke="#231F20" stroke-width="10"></path>
                <path d="M108.99507,60.2617897 C108.73472,55.6180729 98.228603,52.4078323 85.5289088,53.0918501 C72.8288415,53.7755023 62.7445801,58.0945756 63.0049298,62.7382924 C63.2652795,67.3820091 73.771397,70.5918842 86.4714642,69.908232 C99.1711585,69.2242142 109.25542,64.9055064 108.99507,60.2617897" id="Fill-5" fill="#FCE6E1" fill-rule="nonzero"></path>
                <path d="M79,55 C79,57.2091262 77.4331897,59 75.5,59 C73.5672414,59 72,57.2091262 72,55 C72,52.7908738 73.5672414,51 75.5,51 C77.4331897,51 79,52.7908738 79,55" id="Fill-7" fill="#231F20" fill-rule="nonzero"></path>
                <path d="M101,52.5 C101,55.5376616 99.2091676,58 96.9998176,58 C94.7908324,58 93,55.5376616 93,52.5 C93,49.4623384 94.7908324,47 96.9998176,47 C99.2091676,47 101,49.4623384 101,52.5" id="Fill-9" fill="#231F20" fill-rule="nonzero"></path>
            </g>
        </g>
    </g>
</svg>